<svg width="456" height="257" viewBox="0 0 456 257" fill="none" xmlns="http://www.w3.org/2000/svg">
<g clip-path="url(#clip0_881_1360)">
<g opacity="0.557511">
<path d="M235.119 64.5501L224.081 77.0246L207.559 67.7925L218.596 55.3181L235.119 64.5501Z" fill="#99D715"/>
</g>
<g opacity="0.104531">
<path d="M453.999 244.307L458.394 260.673L442.131 270.225L437.735 253.859L453.999 244.307Z" fill="#99D715"/>
</g>
<g opacity="0.702453">
<path d="M425.568 188.951L412.896 177.962L421.049 160.666L433.721 171.653L425.568 188.951Z" fill="#99D715"/>
</g>
<g opacity="0.376317">
<path d="M297.687 51.9287L297.303 65.0037L283.182 68.4147L283.566 55.3398L297.687 51.9287Z" fill="#99D715"/>
</g>
<g opacity="0.344338">
<path d="M187.69 57.7116L186.791 67.9741L175.478 69.6594L176.377 59.3961L187.69 57.7116Z" fill="#99D715"/>
</g>
<g opacity="0.783965">
<path d="M415.357 225.062L417.572 214.987L428.996 214.517L426.782 224.593L415.357 225.062Z" fill="#99D715"/>
</g>
<g opacity="0.598683">
<path d="M285.136 87.0194L294.943 89.3763L295.316 101.111L285.509 98.7553L285.136 87.0194Z" fill="#99D715"/>
</g>
<g opacity="0.310421">
<path d="M107.127 103.247L98.6743 108.656L90.3732 100.468L98.8266 95.0585L107.127 103.247Z" fill="#99D715"/>
</g>
<g opacity="0.702453">
<path d="M14.9646 247.853L22.6196 254.512L17.5908 265.097L9.93576 258.438L14.9646 247.853Z" fill="#99D715"/>
</g>
<path d="M44.2137 164.421C42.0397 163.156 39.3672 162.716 37.0782 161.568C34.3753 160.213 32.1877 157.794 31.0612 154.915C29.4568 150.817 29.9362 145.914 27.5577 142.239C25.4548 138.991 21.6022 137.491 17.9118 136.643C14.2214 135.796 10.3488 135.369 7.04429 133.472C3.32112 131.333 0.818759 127.637 -1.62207 123.966" stroke="#99D715" stroke-opacity="0.980051" stroke-width="2.53223" stroke-miterlimit="10"/>
<path d="M289.427 49.3648C289.071 49.5201 288.722 49.692 288.38 49.882C284.484 52.0364 281.782 56.8848 283.02 61.2697C284.485 66.4642 290.454 68.8095 295.688 68.8169C297.357 68.8194 299.071 68.65 300.567 67.8834C303.845 66.2031 305.238 62.185 306.035 58.4932C308.179 48.5586 308.189 38.1374 306.063 28.1986C305.326 24.7529 304.317 21.3222 302.533 18.3143C302.472 18.2119 302.411 18.1103 302.349 18.0095" stroke="#99D715" stroke-width="2.53223" stroke-miterlimit="10"/>
<path d="M73.7208 162.402C72.2099 162.664 70.636 162.735 69.1395 162.726C65.0712 162.701 60.601 162.521 57.4227 165.145C53.6444 168.266 53.2873 174.147 54.4833 178.992C55.1592 181.73 56.1084 185.004 54.2596 187.086C52.895 188.623 50.6203 188.706 48.6021 188.722C41.4746 188.783 33.1494 190.157 29.7658 196.643C26.9862 201.97 28.1806 209.784 23.2582 213.061C18.8599 215.99 12.7023 212.891 7.91169 215.065C4.56722 216.582 3.00524 219.977 1.57031 223.601" stroke="#99D715" stroke-width="2.53223" stroke-miterlimit="10"/>
<path d="M125.495 89.5527C126.591 87.3454 127.839 85.1265 128.299 82.7581C129.021 79.034 127.568 74.9482 124.685 72.5938C120.084 68.8384 112.265 69.0441 109.971 63.4663C107.891 58.4114 112.313 52.6105 111.001 47.2872C110.221 44.1265 107.579 41.8539 104.912 40.1109C99.7239 36.7197 93.2875 33.7309 91.624 27.6467" stroke="#99D715" stroke-width="2.53223" stroke-miterlimit="10"/>
<path d="M190.404 110.262C186.572 109.022 182.932 107.079 179.763 104.57C172.293 98.6516 166.956 89.2721 167.489 79.5572C168.022 69.8432 175.46 60.4736 184.845 59.7408C187.268 59.5517 189.807 59.9416 191.837 61.322C193.867 62.7024 195.282 65.1964 194.995 67.6912C194.688 70.3504 192.622 72.4305 190.429 73.8547C181.046 79.9504 168.48 77.6291 158.837 71.9819C150.666 67.1972 143.581 59.9911 140.111 50.9693C137.25 43.5328 136.986 35.0612 139.379 27.4512C140.066 25.2662 141.016 23.082 142.519 21.4224" stroke="#99D715" stroke-width="2.53223" stroke-miterlimit="10"/>
<path d="M320.652 120.681C319.954 121.643 319.698 122.977 319.926 124.179C320.243 125.851 321.335 127.271 322.609 128.35C326.547 131.69 332.408 132.121 337.016 129.876C341.624 127.632 344.936 122.993 346.211 117.895C347.211 113.899 346.941 109.326 344.468 106.086C342.94 104.085 340.636 102.736 338.19 102.409C335.706 102.077 332.522 103.62 332.811 106.192C332.921 107.172 333.532 108.014 334.206 108.712C337.695 112.324 343.263 113.169 348.015 111.781C352.767 110.394 356.795 107.085 360.153 103.342C363.474 99.641 366.375 95.1635 366.697 90.1252C366.959 85.998 365.256 81.8865 362.422 78.9795" stroke="#99D715" stroke-width="2.53223" stroke-miterlimit="10"/>
<path d="M208.875 146.679C211.046 146.293 213.098 145.475 214.759 143.997C215.76 143.107 216.533 141.921 217.014 140.631" stroke="#99D715" stroke-width="2.53223" stroke-miterlimit="10"/>
</g>
<defs>
<clipPath id="clip0_881_1360">
<rect width="456" height="257" fill="white"/>
</clipPath>
</defs>
</svg>
