<svg width="460" height="301" viewBox="0 0 460 301" fill="none" xmlns="http://www.w3.org/2000/svg">
<g clip-path="url(#clip0_173_1113)">
<g opacity="0.557511">
<path d="M218.865 58.0072C221.557 58.2767 223.958 56.313 224.227 53.621C224.497 50.9291 222.533 48.5283 219.841 48.2588C217.149 47.9893 214.748 49.953 214.479 52.645C214.209 55.3369 216.173 57.7376 218.865 58.0072Z" fill="#FF869B"/>
<path d="M242.095 62.7893C244.436 61.434 245.236 58.4372 243.88 56.0957C242.525 53.7543 239.528 52.9548 237.187 54.31C234.845 55.6653 234.046 58.6621 235.401 61.0035C236.756 63.345 239.753 64.1445 242.095 62.7893Z" fill="#FF869B"/>
<path d="M203.587 76.4165C203.505 76.5737 203.456 76.7461 203.442 76.9231C203.429 77.1001 203.452 77.2779 203.509 77.4458C203.567 77.6136 203.659 77.7679 203.778 77.8992C203.897 78.0305 204.042 78.136 204.204 78.2092C204.366 78.2825 204.541 78.3219 204.718 78.3252C204.896 78.3284 205.072 78.2954 205.236 78.2281C205.401 78.1608 205.549 78.0607 205.674 77.9339C205.798 77.8071 205.895 77.6562 205.959 77.4906C208.268 72.1129 216.564 69.6159 225.205 71.9213C233.847 74.2268 239.796 80.5241 239.12 86.3376C239.104 86.5083 239.121 86.6805 239.171 86.8444C239.221 87.0084 239.303 87.1609 239.412 87.2933C239.521 87.4256 239.655 87.5352 239.806 87.6157C239.957 87.6963 240.123 87.7463 240.294 87.7628C240.464 87.7793 240.637 87.7621 240.801 87.7121C240.965 87.662 241.117 87.5802 241.249 87.4712C241.382 87.3623 241.491 87.2283 241.572 87.077C241.652 86.9257 241.702 86.76 241.719 86.5893C242.293 79.9635 235.486 72.865 225.638 70.2378C215.79 67.6106 206.383 70.3833 203.587 76.4165Z" fill="#FF869B"/>
<path d="M419.451 175.451C421.495 174.531 422.407 172.129 421.487 170.085C420.568 168.04 418.165 167.129 416.121 168.048C414.077 168.968 413.165 171.37 414.085 173.414C415.004 175.459 417.407 176.37 419.451 175.451Z" fill="#FF6781"/>
<path d="M438.105 169.279C439.226 167.338 438.561 164.856 436.62 163.735C434.679 162.614 432.197 163.28 431.076 165.221C429.955 167.162 430.62 169.644 432.562 170.765C434.503 171.885 436.985 171.22 438.105 169.279Z" fill="#FF6781"/>
<path d="M416.095 194.984C416.101 195.131 416.136 195.275 416.2 195.408C416.264 195.541 416.354 195.659 416.464 195.756C416.575 195.852 416.705 195.925 416.845 195.97C416.985 196.015 417.132 196.031 417.279 196.016C417.425 196.002 417.567 195.958 417.696 195.887C417.825 195.816 417.938 195.719 418.028 195.603C418.118 195.487 418.183 195.354 418.22 195.211C418.257 195.069 418.264 194.92 418.241 194.775C417.676 189.959 422.599 184.737 429.757 182.819C436.914 180.901 443.789 182.962 445.707 187.416C445.766 187.545 445.85 187.661 445.953 187.758C446.057 187.855 446.179 187.931 446.312 187.981C446.445 188.031 446.586 188.054 446.728 188.05C446.87 188.045 447.01 188.012 447.139 187.954C447.269 187.895 447.385 187.811 447.482 187.708C447.579 187.604 447.655 187.482 447.705 187.349C447.755 187.216 447.778 187.075 447.773 186.933C447.768 186.791 447.736 186.651 447.677 186.522C445.35 181.528 437.528 179.246 429.371 181.431C421.215 183.617 415.607 189.497 416.095 194.984Z" fill="#FF6781"/>
</g>
<g opacity="0.376317">
<path d="M307.818 56.8704L307.389 71.4708L291.62 75.2798L292.049 60.6795L307.818 56.8704Z" fill="#FF264C"/>
</g>
<g opacity="0.783965">
<path d="M439.216 250.203L441.689 238.952L454.445 238.427L451.973 249.678L439.216 250.203Z" fill="#FF264C"/>
</g>
<g opacity="0.598683">
<path d="M293.802 96.0547L304.753 98.6866L305.169 111.791L294.218 109.16L293.802 96.0547Z" fill="#FF264C"/>
</g>
<path d="M120.458 112.491C119.813 112.238 119.07 112.563 118.797 113.217L115.803 120.854L108.146 117.868C107.5 117.615 106.757 117.94 106.484 118.594C106.231 119.24 106.555 119.982 107.21 120.255L114.867 123.241L111.881 130.898C111.628 131.544 111.952 132.287 112.606 132.559C112.943 132.691 113.288 132.681 113.581 132.553C113.874 132.425 114.135 132.171 114.248 131.842L117.253 124.177L124.919 127.182C125.256 127.315 125.6 127.304 125.893 127.176C126.186 127.048 126.448 126.794 126.561 126.466C126.814 125.82 126.489 125.077 125.835 124.804L118.189 121.79L121.195 114.125C121.448 113.479 121.124 112.736 120.458 112.492L120.458 112.491Z" fill="#FFBCC7"/>
<path d="M180.576 72.2138C180.295 72.1037 179.972 72.2448 179.853 72.5294L178.551 75.8515L175.22 74.5527C174.94 74.4425 174.616 74.5836 174.498 74.8682C174.388 75.1491 174.529 75.4722 174.813 75.5909L178.144 76.8897L176.845 80.2202C176.735 80.5011 176.876 80.8242 177.161 80.9429C177.307 81.0003 177.457 80.9956 177.585 80.9399C177.712 80.8843 177.826 80.7739 177.875 80.631L179.182 77.2967L182.516 78.604C182.663 78.6615 182.813 78.6568 182.94 78.6011C183.068 78.5454 183.181 78.435 183.23 78.2922C183.341 78.0113 183.2 77.6882 182.915 77.5696L179.589 76.2586L180.896 72.9243C181.007 72.6433 180.865 72.3203 180.576 72.2138L180.576 72.2138Z" fill="#FFBCC7"/>
<path d="M212.458 140.492C211.813 140.239 211.07 140.563 210.797 141.217L207.803 148.855L200.146 145.869C199.5 145.616 198.757 145.94 198.484 146.594C198.231 147.24 198.555 147.983 199.21 148.255L206.867 151.241L203.881 158.898C203.628 159.544 203.952 160.287 204.606 160.56C204.943 160.692 205.288 160.681 205.581 160.553C205.874 160.425 206.135 160.171 206.248 159.843L209.253 152.177L216.919 155.183C217.256 155.315 217.6 155.304 217.893 155.176C218.186 155.048 218.448 154.794 218.561 154.466C218.814 153.82 218.489 153.077 217.835 152.805L210.189 149.79L213.195 142.125C213.448 141.479 213.124 140.737 212.458 140.492L212.458 140.492Z" fill="#FF264C"/>
<path d="M62.4583 150.492C61.8126 150.238 61.0699 150.563 60.797 151.217L57.8026 158.855L50.1456 155.869C49.4999 155.615 48.7572 155.94 48.4843 156.594C48.2311 157.24 48.5555 157.983 49.2098 158.255L56.8667 161.241L53.8808 168.898C53.6276 169.544 53.952 170.287 54.6063 170.56C54.9432 170.692 55.2876 170.681 55.5807 170.553C55.8738 170.425 56.1354 170.171 56.248 169.843L59.2535 162.177L66.9189 165.183C67.2558 165.315 67.6003 165.304 67.8934 165.176C68.1865 165.048 68.448 164.794 68.5606 164.466C68.8138 163.82 68.4895 163.077 67.8351 162.804L60.1892 159.79L63.1947 152.125C63.4478 151.479 63.1235 150.736 62.4582 150.492L62.4583 150.492Z" fill="#FF264C"/>
<g opacity="0.702453">
<path d="M-7.89072 275.653L0.657353 283.088L-4.95821 294.908L-13.5063 287.473L-7.89072 275.653Z" fill="#FF264C"/>
</g>
<path d="M298.595 54.0073C298.198 54.1807 297.808 54.3726 297.425 54.5848C293.075 56.9906 290.058 62.4046 291.44 67.3011C293.076 73.1016 299.742 75.7205 305.586 75.7288C307.449 75.7316 309.364 75.5425 311.034 74.6864C314.695 72.8101 316.251 68.3232 317.14 64.2007C319.535 53.107 319.546 41.47 317.171 30.3717C316.348 26.524 315.222 22.693 313.23 19.3343C313.162 19.2199 313.093 19.1064 313.024 18.9939" stroke="#FF264C" stroke-width="2.53223" stroke-miterlimit="10"/>
<path d="M57.7223 180.232C56.0352 180.524 54.2776 180.604 52.6066 180.594C48.0636 180.566 43.0719 180.365 39.5228 183.295C35.3037 186.781 34.9049 193.348 36.2405 198.758C36.9953 201.815 38.0552 205.471 35.9907 207.795C34.4668 209.512 31.9268 209.604 29.6732 209.623C21.7141 209.691 12.4176 211.225 8.63921 218.468C5.53534 224.417 6.86914 233.142 1.37244 236.802C-3.539 240.072 -10.415 236.612 -15.7645 239.039C-19.4992 240.733 -21.2434 244.525 -22.8457 248.571" stroke="#FF264C" stroke-width="2.53223" stroke-miterlimit="10"/>
<path d="M115.538 98.8837C116.762 96.4189 118.155 93.9411 118.668 91.2964C119.475 87.1379 117.852 82.5753 114.633 79.9462C109.495 75.7527 100.764 75.9824 98.2019 69.7538C95.8796 64.1092 100.818 57.6316 99.3519 51.6872C98.4812 48.1578 95.5307 45.6201 92.5535 43.6737C86.7597 39.8869 79.5724 36.5494 77.7148 29.7554" stroke="#FF264C" stroke-width="2.53223" stroke-miterlimit="10"/>
<path d="M188.018 122.009C183.739 120.624 179.674 118.455 176.136 115.652C167.794 109.044 161.834 98.57 162.429 87.7217C163.024 76.8743 171.33 66.4116 181.81 65.5934C184.516 65.3821 187.351 65.8176 189.618 67.359C191.885 68.9005 193.465 71.6854 193.144 74.4713C192.802 77.4407 190.494 79.7635 188.045 81.3539C177.568 88.1608 163.535 85.5686 152.768 79.2626C143.644 73.9196 135.733 65.8729 131.857 55.7986C128.662 47.4945 128.368 38.0345 131.04 29.5367C131.807 27.0967 132.868 24.6577 134.546 22.8044" stroke="#FF264C" stroke-width="2.53223" stroke-miterlimit="10"/>
<path d="M333.461 133.643C332.683 134.718 332.396 136.208 332.651 137.55C333.006 139.417 334.224 141.002 335.647 142.208C340.045 145.937 346.59 146.418 351.735 143.911C356.88 141.406 360.579 136.225 362.003 130.533C363.12 126.07 362.819 120.964 360.056 117.346C358.351 115.112 355.777 113.604 353.047 113.24C350.273 112.869 346.717 114.592 347.039 117.464C347.163 118.559 347.844 119.499 348.597 120.279C352.493 124.312 358.711 125.255 364.018 123.706C369.324 122.157 373.822 118.461 377.572 114.282C381.28 110.149 384.52 105.149 384.879 99.5229C385.172 94.9142 383.27 90.3231 380.105 87.0769" stroke="#FF264C" stroke-width="2.53223" stroke-miterlimit="10"/>
</g>
<defs>
<clipPath id="clip0_173_1113">
<rect width="460" height="300.278" fill="white"/>
</clipPath>
</defs>
</svg>
